<mxGraphModel><root><mxCell id="0"/><mxCell id="1" parent="0"/><mxCell id="2" value="" style="ellipse;fillColor=strokeColor;" vertex="1" parent="1"><mxGeometry x="53" y="8" width="14" height="14" as="geometry"/></mxCell><mxCell id="3" value="NotLoggedIn" style="rounded=1;absoluteArcSize=1;arcSize=14;whiteSpace=wrap;strokeWidth=2;" vertex="1" parent="1"><mxGeometry x="8" y="72" width="104" height="34" as="geometry"/></mxCell><mxCell id="4" value="LoggedIn" style="rounded=1;absoluteArcSize=1;arcSize=14;whiteSpace=wrap;strokeWidth=2;" vertex="1" parent="1"><mxGeometry x="21" y="175" width="79" height="34" as="geometry"/></mxCell><mxCell id="5" value="" style="curved=1;startArrow=none;;exitX=0.4903948647635324;exitY=1.000000068119594;entryX=0.49870700102586013;entryY=2.8049244600183823e-8;" edge="1" parent="1" source="2" target="3"><mxGeometry relative="1" as="geometry"><Array as="points"/></mxGeometry></mxCell><mxCell id="6" value="Login" style="curved=1;startArrow=none;;exitX=0.3985980922139064;exitY=0.9937612028682933;entryX=0.3601797669651426;entryY=-0.012477678411147174;" edge="1" parent="1" source="3" target="4"><mxGeometry relative="1" as="geometry"><Array as="points"><mxPoint x="28" y="140"/></Array></mxGeometry></mxCell><mxCell id="7" value="Logout" style="curved=1;startArrow=none;;exitX=0.6237576534573753;exitY=-0.012477678411147174;entryX=0.598815909837814;entryY=0.9937612028682933;" edge="1" parent="1" source="4" target="3"><mxGeometry relative="1" as="geometry"><Array as="points"><mxPoint x="91" y="140"/></Array></mxGeometry></mxCell></root></mxGraphModel>